<svg width="410" height="315" viewBox="0 0 410 315" fill="none" xmlns="http://www.w3.org/2000/svg">
<g clip-path="url(#clip0_1_2239)">
<path d="M29.2111 290.191C37.9311 306.42 56.4381 313.388 56.4381 313.388C56.4381 313.388 60.8071 294.041 52.0871 277.811C43.3671 261.581 24.8602 254.614 24.8602 254.614C24.8602 254.614 20.4911 273.961 29.2111 290.191Z" fill="#FFA542"/>
<path d="M35.2047 284.851C50.9479 294.357 57.0111 313.238 57.0111 313.238C57.0111 313.238 37.5496 316.707 21.8064 307.201C6.0632 297.695 0 278.814 0 278.814C0 278.814 19.4616 275.345 35.2047 284.851Z" fill="#FFCE7F"/>
<path d="M390.976 13.5813H292.749V14.9896H390.976V13.5813Z" fill="#F2F2F2"/>
<path d="M320.814 0.90686H319.41V13.9335H320.814V0.90686Z" fill="#F2F2F2"/>
<path d="M363.612 0.90686H362.209V13.9335H363.612V0.90686Z" fill="#F2F2F2"/>
<path d="M421.847 183.28H323.62V184.688H421.847V183.28Z" fill="#F2F2F2"/>
<path d="M351.685 170.606H350.282V183.632H351.685V170.606Z" fill="#F2F2F2"/>
<path d="M394.484 170.606H393.08V183.632H394.484V170.606Z" fill="#F2F2F2"/>
<path d="M254.028 282.759H87.8945V281.56H252.832V223.383H101.861L94.5269 208.049L95.6046 207.53L102.613 222.184H254.028V282.759Z" fill="#2F2E41"/>
<path d="M110.006 312.147C116.937 312.147 122.555 306.508 122.555 299.552C122.555 292.596 116.937 286.957 110.006 286.957C103.075 286.957 97.4561 292.596 97.4561 299.552C97.4561 306.508 103.075 312.147 110.006 312.147Z" fill="#101010"/>
<path d="M233.709 312.147C240.64 312.147 246.259 306.508 246.259 299.552C246.259 292.596 240.64 286.957 233.709 286.957C226.778 286.957 221.16 292.596 221.16 299.552C221.16 306.508 226.778 312.147 233.709 312.147Z" fill="#101010"/>
<path d="M379.524 39.8585C383.815 39.8585 387.293 36.3678 387.293 32.0617C387.293 27.7557 383.815 24.2649 379.524 24.2649C375.234 24.2649 371.755 27.7557 371.755 32.0617C371.755 36.3678 375.234 39.8585 379.524 39.8585Z" fill="#FFA542"/>
<path d="M271.796 203.591H85.0617L44.6567 71.0457H313.407L313.163 71.8256L271.796 203.591ZM85.9459 202.392H270.92L311.778 72.2452H46.2721L85.9459 202.392Z" fill="#2F2E41"/>
<path d="M257.22 196.694H93.2043L57.7151 79.1422H293.768L293.553 79.8344L257.22 196.694Z" fill="#F2F2F2"/>
<path d="M316.756 59.2044L315.6 58.8966L323.487 29.0627H369.365V30.2626H324.407L316.756 59.2044Z" fill="#2F2E41"/>
<path d="M299.978 111.229H57.7139V112.429H299.978V111.229Z" fill="#2F2E41"/>
<path d="M286.104 155.421H71.1853V156.621H286.104V155.421Z" fill="#2F2E41"/>
<path d="M179.626 71.6456H178.431V202.992H179.626V71.6456Z" fill="#2F2E41"/>
<path d="M233.138 71.6078L224.558 202.951L225.751 203.029L234.331 71.6863L233.138 71.6078Z" fill="#2F2E41"/>
<path d="M124.944 71.6063L123.751 71.6843L132.281 203.031L133.474 202.953L124.944 71.6063Z" fill="#2F2E41"/>
<path d="M389.763 312.48H0V315H389.763V312.48Z" fill="#090909"/>
<path d="M140.498 36.8181H42.2715V38.2264H140.498V36.8181Z" fill="#F2F2F2"/>
<path d="M70.3361 24.1437H68.9329V37.1703H70.3361V24.1437Z" fill="#F2F2F2"/>
<path d="M113.135 24.1437H111.732V37.1703H113.135V24.1437Z" fill="#F2F2F2"/>
</g>
<defs>
<clipPath id="clip0_1_2239">
<rect width="409.879" height="315" fill="white"/>
</clipPath>
</defs>
</svg>
